:version 1.10
:name ASF
:units
  mass 1
  length 1
  angle deg
:documentation
  ASF file generated by Kaydara
:root
  axis xyz
  order  tx ty tz rx ry rz
  position 0 0 0
  orientation 0 0 0
:bonedata
  begin
    id 1
    name abdomenDummy
    direction 1 -1.27917e-005 -1.26829e-007
    length 1.79048
    axis 0 0 0 xyz
  end
  begin
    id 2
    name abdomen
    direction 0.987238 0.159249 -9.68575e-008
    length 8.61378
    axis 2.73208e-005 5.54953e-006 9.16328 xyz
    dof rx ry rz
  end
  begin
    id 3
    name chest
    direction 0 0 0
    length 0
    axis 2.65071e-005 8.63688e-006 2.59796 xyz
    dof rx ry rz
  end
  begin
    id 4
    name neckDummyDummy
    direction 0.998972 0.0453274 -1.50742e-007
    length 9.56202
    axis 2.65071e-005 8.63688e-006 2.59796 xyz
  end
  begin
    id 5
    name neckDummy
    direction 0.99977 0.0214525 -1.61748e-007
    length 1.93574
    axis 2.62932e-005 9.26758e-006 1.22924 xyz
    dof rx ry rz
  end
  begin
    id 6
    name neck
    direction 0.99928 -0.0379406 -1.88707e-007
    length 3.70367
    axis 2.56966e-005 1.08122e-005 -2.17436 xyz
    dof rx ry rz
  end
  begin
    id 7
    name head
    direction 0.992648 -0.121037 -2.25408e-007
    length 6.35158
    axis 2.47068e-005 1.29149e-005 -6.95196 xyz
    dof rx ry rz
  end
  begin
    id 8
    name figureHair
    direction -0.86681 -0.498639 -7.83376e-008
    length 8.29884
    axis -2.7515e-005 4.48842e-006 -150.09 xyz
    dof rx ry rz
  end
  begin
    id 9
    name lCollarDummy
    direction 0.994611 0.0451299 -0.0933417
    length 9.60395
    axis 2.65071e-005 8.63688e-006 2.59796 xyz
  end
  begin
    id 10
    name lCollar
    direction 0.0384146 0.00127577 -0.999261
    length 6.95318
    axis 90.4899 87.7973 1.90202 xyz
    dof rx ry rz
  end
  begin
    id 11
    name lShldr
    direction -0.030648 0.0920515 -0.995282
    length 9.61158
    axis -161.793 84.4324 108.415 xyz
    dof rx ry rz
  end
  begin
    id 12
    name lForeArm
    direction 0.000163956 -0.0977586 -0.99521
    length 8.6068
    axis 0.134773 84.3899 -89.8525 xyz
    dof rx ry rz
  end
  begin
    id 13
    name lHand
    direction -0.0190533 -0.1444 -0.989336
    length 7.61479
    axis -7.3729 81.6249 -97.517 xyz
    dof rx ry rz
  end
  begin
    id 14
    name rCollarDummy
    direction 0.994871 0.0442627 0.0909555
    length 9.60761
    axis 2.65071e-005 8.63688e-006 2.59796 xyz
  end
  begin
    id 15
    name rCollar
    direction 0.0334251 -4.74072e-007 0.999441
    length 6.97058
    axis -178.152 -88.0845 -0.000674207 xyz
    dof rx ry rz
  end
  begin
    id 16
    name rShldr
    direction -0.026922 0.0719509 0.997045
    length 9.60913
    axis 71.2822 -85.594 110.514 xyz
    dof rx ry rz
  end
  begin
    id 17
    name rForeArm
    direction 0.00134679 -0.118986 0.992895
    length 8.57176
    axis -88.7923 -83.1659 -89.3516 xyz
    dof rx ry rz
  end
  begin
    id 18
    name rHand
    direction -0.0185183 -0.0768601 0.99687
    length 7.69687
    axis -74.5596 -85.4655 -103.546 xyz
    dof rx ry rz
  end
  begin
    id 19
    name lThighDummy
    direction -0.236086 -0.0385456 -0.970967
    length 4.99155
    axis 0 0 0 xyz
  end
  begin
    id 20
    name lThigh
    direction -0.993968 0.0148998 -0.108653
    length 13.572
    axis -91.4001 6.23768 179.141 xyz
    dof rx ry rz
  end
  begin
    id 21
    name lShin
    direction -0.992341 0.0904576 -0.0841193
    length 18.5862
    axis -91.4558 4.82538 174.792 xyz
    dof rx ry rz
  end
  begin
    id 22
    name lFoot
    direction 0.0209381 -0.999771 -0.00453005
    length 8.44474
    axis 4.86759 0.259522 -88.8001 xyz
    dof rx ry rz
  end
  begin
    id 23
    name rThighDummy
    direction -0.236086 -0.0385456 0.970967
    length 4.99155
    axis 0 0 0 xyz
  end
  begin
    id 24
    name rThigh
    direction -0.993968 0.0148995 0.108653
    length 13.5721
    axis -89.7059 -6.2377 179.141 xyz
    dof rx ry rz
  end
  begin
    id 25
    name rShin
    direction -0.9925 0.0899962 0.0827255
    length 18.6716
    axis -89.2745 -4.74775 174.819 xyz
    dof rx ry rz
  end
  begin
    id 26
    name rFoot
    direction 0.0301721 -0.999545 9.70865e-005
    length 8.45013
    axis -2.50066e-005 -0.00555246 -88.271 xyz
    dof rx ry rz
  end
:hierarchy
  begin
    root abdomenDummy lThighDummy rThighDummy
    abdomenDummy abdomen
    abdomen chest
    chest neckDummyDummy lCollarDummy rCollarDummy
    neckDummyDummy neckDummy
    neckDummy neck
    neck head
    head figureHair
    lCollarDummy lCollar
    lCollar lShldr
    lShldr lForeArm
    lForeArm lHand
    rCollarDummy rCollar
    rCollar rShldr
    rShldr rForeArm
    rForeArm rHand
    lThighDummy lThigh
    lThigh lShin
    lShin lFoot
    rThighDummy rThigh
    rThigh rShin
    rShin rFoot
  end

:SAMPLES-PER-SECOND 25
:FULLY-SPECIFIED
:DEGREES
1049
root  -1.8488 34.9993 -1.93769 179.021 1.24973 65.4762
abdomen  -3.64751 -6.13 31.2206
chest  -0.381683 4.57844 -21.2479
neckDummy  9.09964e-021 0 8.72668e-016
neck  7.37516 6.31115 27.3127
head  3.93671 1.4495 18.599
figureHair  0 1.51661e-021 -9.5315e-016
lCollar  -5.15695e-016 -6.42944e-016 -7.59357e-014
lShldr  9.52036 34.972 -77.8608
lForeArm  13.9187 -11.1099 -3.46721
lHand  0.254698 0.195082 5.2986
rCollar  1.7976e-016 -5.12864e-014 1.62755e-015
rShldr  -62.745 54.1044 -69.4316
rForeArm  8.17843 4.21117 7.69107
rHand  1.06753 -10.8927 -5.24774
lThigh  -13.5381 19.9905 -0.124493
lShin  -2.79236 25.4511 2.04391
lFoot  -0.573241 0.14102 15.814
rThigh  10.3063 16.2638 -4.11844
rShin  3.36958 31.1395 -1.93792
rFoot  -0.189249 1.43578 16.1678
1050
root  -1.64482 35.1287 -1.99148 178.874 1.06892 66.3443
abdomen  -3.60104 -6.54863 30.3709
chest  -0.250424 5.11048 -21.4322
neckDummy  9.09964e-021 0 8.72668e-016
neck  7.81831 7.38558 26.8836
head  3.67605 0.806318 18.2076
figureHair  0 1.51661e-021 -9.5315e-016
lCollar  -5.15695e-016 -6.42944e-016 -7.59357e-014
lShldr  10.116 32.7682 -77.0163
lForeArm  14.5373 -10.2992 -3.91807
lHand  0.254698 0.195082 5.2986
rCollar  1.7976e-016 -5.12864e-014 1.62755e-015
rShldr  -62.228 55.3759 -68.0085
rForeArm  7.29033 4.2661 7.71374
rHand  1.04214 -10.7912 -5.10428
lThigh  -13.7437 19.2842 -0.130745
lShin  -2.8775 24.4757 2.01513
lFoot  -0.369323 0.0867346 15.045
rThigh  10.3345 15.4832 -3.6301
rShin  3.4766 30.1497 -1.92059
rFoot  -0.48199 1.44856 15.4559
1051
root  -1.41427 35.2835 -2.05041 178.946 0.930588 67.2351
abdomen  -3.50937 -6.7445 29.1519
chest  -0.179319 5.68828 -21.1695
neckDummy  9.09964e-021 0 8.72668e-016
neck  8.12943 8.10805 24.9352
head  3.67327 0.404941 18.6809
figureHair  0 1.51661e-021 -9.5315e-016
lCollar  -5.15695e-016 -6.42944e-016 -7.59357e-014
lShldr  11.0391 30.4793 -75.893
lForeArm  15.3779 -9.98903 -4.23644
lHand  0.254698 0.195082 5.2986
rCollar  1.7976e-016 -5.12864e-014 1.62755e-015
rShldr  -61.4438 56.7298 -66.3676
rForeArm  5.71827 4.33967 7.80113
rHand  1.00318 -10.5981 -4.90896
lThigh  -13.5873 18.5885 -0.147452
lShin  -3.11733 23.2446 1.94729
lFoot  -0.179633 0.0385827 14.0813
rThigh  10.7227 14.9373 -3.11168
rShin  3.45613 28.7543 -1.90284
rFoot  -0.868871 1.46576 14.5777
1052
root  -1.14652 35.4452 -2.11277 179.161 0.862961 68.2729
abdomen  -3.34483 -6.46806 27.9771
chest  -0.222189 5.86206 -21.1521
neckDummy  9.09964e-021 0 8.72668e-016
neck  8.48515 8.87616 22.9336
head  3.73486 0.0710098 19.1675
figureHair  0 1.51661e-021 -9.5315e-016
lCollar  -5.15695e-016 -6.42944e-016 -7.59357e-014
lShldr  12.3107 27.9526 -74.836
lForeArm  15.8694 -10.4028 -4.24714
lHand  0.254698 0.195082 5.2986
rCollar  1.7976e-016 -5.12864e-014 1.62755e-015
rShldr  -60.2473 58.2031 -63.8976
rForeArm  4.55178 4.3184 8.27505
rHand  0.985954 -10.8062 -4.59875
lThigh  -13.0218 17.6828 -0.19515
lShin  -3.65262 21.9408 1.75625
lFoot  0.00249522 -0.00449659 13.0222
rThigh  11.3643 14.3166 -2.6349
rShin  3.30151 27.2255 -1.88518
rFoot  -1.29318 1.47816 13.6189
1053
root  -0.821206 35.6169 -2.17964 179.263 0.742966 69.6388
abdomen  -3.14624 -6.16165 27.1883
chest  -0.258115 5.71892 -21.6653
neckDummy  9.09964e-021 0 8.72668e-016
neck  9.07045 10.1058 21.7795
head  3.66496 -0.578257 18.8363
figureHair  0 1.51661e-021 -9.5315e-016
lCollar  -5.15695e-016 -6.42944e-016 -7.59357e-014
lShldr  14.0149 25.0504 -74.0372
lForeArm  15.7757 -11.3245 -3.96774
lHand  0.254698 0.195082 5.2986
rCollar  1.7976e-016 -5.12864e-014 1.62755e-015
rShldr  -58.4242 59.8471 -60.2649
rForeArm  3.597 4.31649 8.9075
rHand  0.974275 -11.0419 -4.32616
lThigh  -12.5736 16.406 -0.178262
lShin  -4.19212 20.5851 1.43839
lFoot  0.403917 -0.0918133 11.8854
rThigh  11.7409 13.2459 -2.10842
rShin  3.30838 25.6446 -1.77771
rFoot  -1.67506 1.46079 12.5362
1054
root  -0.468997 35.8064 -2.24653 179.37 0.585312 71.1638
abdomen  -3.00571 -6.33364 26.3451
chest  -0.16881 6.16097 -21.6443
neckDummy  9.09964e-021 0 8.72668e-016
neck  9.18116 10.7533 18.7422
head  3.763 -0.727369 19.2993
figureHair  0 1.51661e-021 -9.5315e-016
lCollar  -5.15695e-016 -6.42944e-016 -7.59357e-014
lShldr  16.2966 22.3063 -72.8781
lForeArm  15.5362 -12.4039 -3.5708
lHand  0.254698 0.195082 5.2986
rCollar  1.7976e-016 -5.12864e-014 1.62755e-015
rShldr  -57.1252 61.1962 -56.8302
rForeArm  2.63106 4.33127 9.51042
rHand  0.960102 -11.0937 -4.16756
lThigh  -11.9246 15.0065 -0.116223
lShin  -4.94167 19.0642 0.988788
lFoot  1.03405 -0.217 10.6293
rThigh  11.9823 12.1114 -1.56642
rShin  3.45993 23.7823 -1.47491
rFoot  -2.14807 1.43568 11.2545
1055
root  -0.123921 35.9933 -2.30953 179.586 0.476074 72.6637
abdomen  -2.88086 -6.30324 25.4414
chest  -0.159779 6.57655 -21.6274
neckDummy  9.09964e-021 0 8.72668e-016
neck  9.15716 10.9082 15.6286
head  4.05006 -0.603119 19.4874
figureHair  0 1.51661e-021 -9.5315e-016
lCollar  -5.15695e-016 -6.42944e-016 -7.59357e-014
lShldr  18.5096 19.5715 -71.7409
lForeArm  15.2192 -13.5748 -3.03026
lHand  0.254698 0.195082 5.2986
rCollar  1.7976e-016 -5.12864e-014 1.62755e-015
rShldr  -55.5355 62.5596 -52.8844
rForeArm  2.05762 4.33017 10.0564
rHand  0.953347 -11.3444 -3.94848
lThigh  -10.7628 13.7116 -0.138777
lShin  -6.07844 17.3862 0.494778
lFoot  1.54076 -0.302606 9.30002
rThigh  12.053 11.1779 -1.15211
rShin  3.89575 21.754 -0.893113
rFoot  -2.73113 1.41811 9.92607
1056
root  0.22404 36.1626 -2.37704 179.796 0.403976 74.1445
abdomen  -2.63378 -5.86036 24.527
chest  -0.177236 6.38822 -21.7538
neckDummy  9.09964e-021 0 8.72668e-016
neck  9.20194 11.2525 13.1594
head  4.25591 -0.519743 19.043
figureHair  0 1.51661e-021 -9.5315e-016
lCollar  -5.15695e-016 -6.42944e-016 -7.59357e-014
lShldr  20.3761 16.8809 -71.015
lForeArm  14.6836 -14.7132 -2.40781
lHand  0.254698 0.195082 5.2986
rCollar  1.7976e-016 -5.12864e-014 1.62755e-015
rShldr  -52.8066 63.8907 -47.8785
rForeArm  1.84986 4.3528 10.4463
rHand  0.941374 -11.7992 -3.58906
lThigh  -9.59333 12.4758 -0.132958
lShin  -7.20375 15.6479 -0.0190001
lFoot  1.82786 -0.335732 7.93957
rThigh  11.6566 10.2412 -0.797882
rShin  4.7756 19.7446 -0.144104
rFoot  -3.26169 1.38261 8.64837
1057
root  0.584557 36.3213 -2.44845 179.904 0.283676 75.633
abdomen  -2.3838 -5.59311 23.4478
chest  -0.13033 6.24432 -21.5457
neckDummy  9.09964e-021 0 8.72668e-016
neck  9.15623 11.6933 10.8355
head  4.32782 -0.479687 18.0072
figureHair  0 1.51661e-021 -9.5315e-016
lCollar  -5.15695e-016 -6.42944e-016 -7.59357e-014
lShldr  21.8288 14.4504 -70.516
lForeArm  14.238 -15.6293 -1.89466
lHand  0.254698 0.195082 5.2986
rCollar  1.7976e-016 -5.12864e-014 1.62755e-015
rShldr  -49.5945 65.0708 -42.6044
rForeArm  1.79758 4.43671 10.6515
rHand  0.931936 -12.2147 -3.22949
lThigh  -8.75961 11.2744 0.0415259
lShin  -8.05899 13.8691 -0.615598
lFoot  2.1939 -0.37439 6.52845
rThigh  10.9587 9.28869 -0.437389
rShin  5.83814 17.6434 0.656264
rFoot  -3.75764 1.31978 7.2933
1058
root  0.943866 36.4667 -2.50725 179.935 0.200668 77.1045
abdomen  -2.28493 -5.6802 22.2604
chest  -0.0992322 6.59069 -21.1638
neckDummy  9.09964e-021 0 8.72668e-016
neck  9.17175 12.1201 9.24323
head  4.35397 -0.626271 16.1664
figureHair  0 1.51661e-021 -9.5315e-016
lCollar  -5.15695e-016 -6.42944e-016 -7.59357e-014
lShldr  22.6233 12.2244 -70.1032
lForeArm  14.2754 -16.3201 -1.52984
lHand  0.254698 0.195082 5.2986
rCollar  1.7976e-016 -5.12864e-014 1.62755e-015
rShldr  -46.3619 66.2444 -37.2891
rForeArm  2.16926 4.44358 10.9507
rHand  0.93317 -12.6577 -2.99532
lThigh  -8.03339 10.1301 0.178544
lShin  -8.88143 12.0622 -1.20002
lFoot  2.69277 -0.424167 5.10503
rThigh  10.3909 8.32809 -0.24165
rShin  6.6349 15.6006 1.44157
rFoot  -4.30572 1.24825 5.88904
1059
root  1.29782 36.5877 -2.54891 179.921 0.186447 78.5818
abdomen  -2.21404 -5.77167 21.0751
chest  -0.0758166 6.92215 -20.8322
neckDummy  9.09964e-021 0 8.72668e-016
neck  9.3303 12.7458 8.64205
head  4.29073 -1.03402 13.8674
figureHair  0 1.51661e-021 -9.5315e-016
lCollar  -5.15695e-016 -6.42944e-016 -7.59357e-014
lShldr  22.903 10.1605 -69.913
lForeArm  14.5845 -16.89 -1.25567
lHand  0.254698 0.195082 5.2986
rCollar  1.7976e-016 -5.12864e-014 1.62755e-015
rShldr  -43.238 67.2532 -31.8114
rForeArm  3.06507 4.16662 11.6913
rHand  0.950552 -12.9958 -2.94861
lThigh  -7.3609 8.93478 0.140265
lShin  -9.7155 10.3609 -1.62884
lFoot  3.10425 -0.451134 3.7684
rThigh  10.1616 7.16159 -0.233198
rShin  6.9726 13.9396 2.05718
rFoot  -4.76957 1.1681 4.62829
1060
root  1.65477 36.6854 -2.58726 179.91 0.174271 80.008
abdomen  -2.05111 -5.78976 19.6501
chest  0.0168312 7.00606 -20.1865
neckDummy  9.09964e-021 0 8.72668e-016
neck  9.37914 13.4213 8.30471
head  4.06681 -1.57385 11.7772
figureHair  0 1.51661e-021 -9.5315e-016
lCollar  -5.15695e-016 -6.42944e-016 -7.59357e-014
lShldr  23.2079 8.40077 -69.905
lForeArm  14.7021 -17.391 -1.04677
lHand  0.254698 0.195082 5.2986
rCollar  1.7976e-016 -5.12864e-014 1.62755e-015
rShldr  -41.1628 67.8636 -27.0079
rForeArm  4.37406 3.50921 12.9998
rHand  0.961796 -12.9924 -3.03535
lThigh  -7.06333 7.63704 0.157566
lShin  -10.1482 8.9453 -1.96943
lFoot  3.40731 -0.45849 2.57092
rThigh  10.0915 5.85698 -0.203399
rShin  7.13038 12.5819 2.49182
rFoot  -5.07051 1.07331 3.52087
